<?xml version="1.0" standalone="no"?>
<!DOCTYPE svg PUBLIC "-//W3C//DTD SVG 20010904//EN"
 "http://www.w3.org/TR/2001/REC-SVG-20010904/DTD/svg10.dtd">
<svg version="1.0" xmlns="http://www.w3.org/2000/svg"
 width="50.000000pt" height="50.000000pt" viewBox="0 0 50.000000 50.000000"
 preserveAspectRatio="xMidYMid meet">
<metadata>
Created by potrace 1.16, written by Peter Selinger 2001-2019
</metadata>
<g transform="translate(0.000000,50.000000) scale(0.012500,-0.012500)"
fill="#ff839b" stroke="none">
<path d="M2020 3770 c-92 -15 -171 -66 -206 -132 -27 -51 -14 -272 15 -254 4
3 14 26 21 51 43 154 198 130 177 -27 -9 -68 -65 -115 -217 -183 -133 -59
-320 -154 -365 -185 -64 -44 -124 -111 -153 -169 -21 -44 -26 -70 -27 -134 -2
-76 -3 -81 -31 -100 -65 -45 -128 -115 -155 -172 -25 -52 -29 -72 -29 -146 0
-103 26 -198 68 -248 28 -34 28 -34 55 -16 19 12 37 15 60 11 31 -6 33 -5 49
42 41 115 142 229 255 289 108 58 220 84 598 138 130 18 252 58 291 94 l29 26
-59 3 c-51 3 -62 0 -85 -21 -53 -50 -89 -61 -264 -83 -67 -8 -173 -27 -235
-41 -120 -28 -129 -27 -194 19 -39 28 -189 -55 -260 -146 -24 -30 -58 -93 -76
-140 -64 -163 -134 -185 -120 -37 14 145 150 291 353 379 143 61 233 77 325
55 62 -14 69 -14 138 6 49 15 80 31 100 52 22 24 40 32 84 38 62 8 88 24 88
52 0 50 30 78 102 93 31 7 48 47 48 114 0 39 2 43 16 31 29 -24 56 -92 61
-153 5 -68 21 -119 34 -110 17 10 8 99 -16 158 -13 33 -23 62 -21 64 6 6 45
-54 71 -110 41 -87 30 -185 -29 -262 -14 -19 -26 -37 -26 -40 0 -10 85 33 97
50 35 48 24 166 -24 274 -26 57 -39 130 -24 130 14 0 104 -73 134 -109 20 -24
32 -31 47 -26 11 3 20 11 20 17 0 6 -35 46 -79 89 -76 77 -135 114 -206 129
-34 7 -35 11 -5 95 81 224 -17 443 -233 523 -63 23 -137 31 -197 22z m207 -56
c107 -55 161 -163 150 -300 -8 -85 -41 -180 -68 -194 -10 -6 -19 -19 -19 -28
0 -48 -97 -157 -181 -205 -95 -54 -415 -173 -441 -165 -7 3 60 33 147 67 281
111 377 179 451 323 13 27 30 47 37 45 9 -1 12 25 12 103 -1 94 -3 111 -30
168 -48 107 -134 158 -251 150 -77 -5 -132 -39 -181 -112 -31 -46 -33 -47 -33
-20 0 37 33 104 69 138 75 72 230 85 338 30z m-84 -111 c23 -16 53 -49 66 -73
14 -24 26 -39 29 -32 2 6 -9 32 -23 57 -29 48 -20 62 14 19 62 -79 64 -192 4
-314 -70 -144 -194 -237 -374 -280 -196 -47 -254 -65 -305 -96 -30 -18 -54
-29 -54 -25 0 12 42 47 77 65 40 20 55 41 22 31 -35 -11 -106 -71 -148 -126
-46 -61 -60 -63 -27 -2 15 25 25 48 23 50 -9 8 -74 -70 -99 -119 -22 -42 -27
-48 -27 -28 -1 39 42 121 85 163 52 51 107 78 238 116 329 95 506 198 536 311
14 52 7 134 -16 188 -32 77 -102 121 -167 106 -32 -8 -31 -8 18 -15 39 -6 57
-16 83 -43 28 -31 32 -43 32 -89 0 -61 -36 -128 -89 -166 -36 -26 -40 -13 -8
30 18 25 22 44 22 104 0 64 -3 77 -24 99 -29 31 -73 34 -126 9 -49 -23 -55 -9
-14 33 71 70 175 82 252 27z m-7 -277 c-10 -51 -83 -127 -158 -164 -35 -17
-152 -60 -260 -95 -186 -62 -271 -99 -298 -132 -7 -8 -17 -15 -23 -15 -19 0
36 52 97 91 32 21 140 70 240 109 225 88 292 126 353 195 26 29 49 52 52 50 2
-2 0 -20 -3 -39z m274 -54 c-33 -134 -165 -296 -303 -377 -38 -22 -64 -41 -59
-43 15 -5 67 23 140 75 69 49 82 43 25 -12 -90 -87 -240 -165 -433 -224 -224
-69 -327 -104 -390 -134 -84 -40 -168 -123 -200 -199 -16 -36 -30 -56 -38 -53
-8 3 -15 -7 -19 -25 -11 -55 -27 -47 -19 10 22 162 120 293 285 379 105 54
170 78 397 146 104 31 227 74 273 97 150 72 275 221 331 393 17 53 25 27 10
-33z"/>
<path d="M2737 2866 c-8 -8 -27 -16 -43 -18 -25 -3 -29 -8 -32 -38 -3 -32 1
-38 36 -58 22 -12 46 -22 54 -22 15 0 58 76 58 103 0 19 -27 47 -45 47 -7 0
-20 -6 -28 -14z"/>
<path d="M2307 2842 c-20 -22 -23 -110 -4 -135 17 -24 74 -31 122 -15 38 12
40 15 40 53 0 36 -3 41 -33 51 -18 6 -39 21 -45 35 -16 31 -57 37 -80 11z"/>
<path d="M2817 2725 c29 -107 -25 -301 -112 -402 -94 -110 -355 -173 -721
-173 -295 0 -541 -107 -656 -284 -48 -75 -49 -86 -3 -79 25 4 41 1 53 -10 9
-9 29 -20 44 -26 15 -5 35 -22 44 -36 21 -32 8 -69 -31 -87 -14 -6 -25 -15
-25 -19 0 -9 92 -2 163 12 80 15 166 10 302 -18 l130 -26 125 19 c100 15 179
19 400 19 l275 0 55 27 c30 15 67 37 81 48 23 20 30 20 94 10 82 -13 155 -43
155 -63 0 -21 -22 -27 -91 -27 -77 0 -111 -15 -182 -80 -53 -48 -60 -52 -83
-41 -32 14 -121 14 -165 0 -19 -7 -56 -27 -83 -45 -42 -27 -53 -31 -75 -22
-43 17 -152 14 -189 -6 -33 -17 -34 -17 -94 13 -72 36 -145 41 -220 14 -45
-16 -48 -16 -100 7 -68 30 -187 32 -266 6 l-53 -18 -67 33 c-53 26 -83 34
-140 37 -41 3 -84 -1 -100 -7 -25 -11 -35 -8 -97 28 -87 51 -140 69 -256 86
-51 8 -97 19 -102 24 -14 14 41 36 108 45 87 12 105 17 105 32 0 24 -24 26
-91 9 -76 -20 -134 -49 -143 -70 -12 -31 -6 -44 27 -60 45 -22 106 -108 187
-267 57 -111 75 -139 96 -144 14 -4 26 -5 28 -3 2 2 -21 60 -51 128 -30 68
-52 131 -50 140 2 9 34 -47 71 -124 37 -77 71 -147 75 -154 8 -16 35 -25 114
-40 41 -7 47 -6 47 9 0 25 -32 115 -73 204 -20 42 -31 76 -24 74 17 -6 71
-109 109 -210 18 -48 38 -90 44 -92 6 -2 47 -7 90 -11 l79 -7 29 43 29 44 -17
60 c-27 93 -30 109 -19 102 5 -3 22 -38 38 -76 l28 -71 48 0 c50 0 174 -34
184 -50 14 -23 35 -9 35 24 0 57 12 126 21 120 5 -3 9 -39 9 -80 l0 -74 40 0
c21 0 50 -5 62 -11 20 -9 34 -4 88 29 65 39 65 39 84 111 23 86 41 95 31 14
-4 -31 -9 -63 -13 -71 -4 -12 0 -14 19 -9 31 8 95 -9 131 -35 32 -22 43 -19
53 19 14 57 67 183 77 183 12 0 5 -33 -33 -160 -15 -52 -26 -96 -24 -98 6 -6
184 18 210 28 13 5 37 46 69 121 55 127 54 125 62 117 3 -3 -11 -54 -32 -112
-20 -59 -34 -109 -31 -112 5 -5 145 31 152 38 1 2 19 37 40 77 84 169 125 202
56 46 -22 -49 -38 -91 -36 -93 14 -15 40 20 80 105 25 54 73 144 106 200 44
74 59 108 54 123 -8 24 -63 52 -148 76 -36 10 -56 20 -53 27 61 138 61 139 60
252 0 89 -4 121 -22 167 -43 107 -96 160 -194 193 -27 9 -48 21 -48 26 0 5 9
27 19 47 33 65 46 148 33 222 -7 35 -19 71 -28 79 -14 15 -15 13 -7 -14z m100
-441 c116 -68 143 -163 101 -364 -32 -150 -82 -174 -443 -211 -177 -18 -223
-19 -290 -10 -136 19 -203 79 -181 165 18 71 111 76 382 20 212 -44 325 -50
392 -20 23 10 42 23 42 29 0 5 -8 6 -17 1 -10 -4 -54 -9 -98 -11 -80 -4 -98
-1 -420 68 -114 24 -253 29 -306 11 -57 -20 -91 -63 -97 -121 -4 -47 -2 -53
29 -83 19 -18 43 -38 54 -45 18 -11 16 -12 -18 -12 -86 -2 -122 43 -115 143 5
83 38 128 123 170 73 35 196 45 325 27 45 -7 84 -10 87 -8 7 8 -177 45 -255
51 -91 8 -190 -8 -251 -39 -87 -44 -128 -142 -101 -240 11 -40 11 -48 -5 -65
-23 -26 -115 -43 -184 -35 -108 12 -171 36 -218 80 -37 36 -43 47 -43 83 0 48
35 89 110 127 l48 24 -5 -38 c-7 -48 16 -74 55 -65 15 4 33 11 40 17 17 13 15
47 -2 47 -8 0 -27 11 -41 24 l-27 25 73 21 c202 60 405 90 721 106 123 6 141
9 170 30 38 28 67 30 111 7 44 -23 116 -22 133 2 18 25 18 65 -2 93 -8 12 -13
26 -10 31 9 13 85 -7 133 -35z"/>
<path d="M2560 2140 c-15 -15 -20 -33 -20 -79 0 -74 11 -84 94 -85 50 -1 69 3
85 18 37 33 24 79 -24 88 -11 2 -21 12 -23 23 -10 53 -74 73 -112 35z"/>
<path d="M1667 2610 c-34 -27 -34 -32 2 -72 l28 -32 47 18 c26 10 60 29 74 41
22 20 25 27 16 42 -7 11 -21 17 -35 15 -41 -5 -63 -5 -84 2 -14 5 -30 0 -48
-14z"/>
<path d="M2439 2540 c-88 -66 -234 -105 -471 -125 l-77 -7 21 -28 c12 -16 34
-31 52 -34 62 -12 260 24 368 65 15 6 31 23 36 39 7 19 22 32 46 41 24 9 39
22 45 41 6 15 9 28 8 28 -1 0 -14 -9 -28 -20z"/>
<path d="M2514 2550 c-12 -5 -27 -24 -33 -42 -8 -25 -19 -36 -44 -43 -44 -14
-65 -56 -43 -90 19 -29 85 -49 135 -40 99 16 91 10 91 79 0 120 -35 165 -106
136z"/>
<path d="M1679 2281 c-38 -12 -70 -31 -106 -61 -17 -15 -53 -35 -81 -44 -63
-21 -192 -150 -212 -211 -17 -52 -42 -87 -74 -105 -32 -17 -42 -51 -26 -89 23
-56 -7 -83 -99 -93 -42 -5 -37 -28 6 -28 21 0 70 -9 108 -20 38 -11 73 -20 77
-20 4 0 -1 15 -12 33 -27 44 -27 138 1 211 65 176 224 308 468 389 65 22 71
26 53 36 -23 12 -65 13 -103 2z"/>
<path d="M2932 1645 c-78 -62 -126 -70 -367 -58 -204 11 -280 8 -413 -17 -110
-20 -229 -15 -356 15 l-116 28 -107 -22 c-127 -25 -222 -26 -318 -5 -108 24
-145 28 -145 16 0 -6 13 -13 29 -17 16 -3 49 -19 74 -35 41 -26 50 -28 83 -18
67 18 165 6 233 -29 l60 -31 61 19 c88 27 167 25 247 -7 66 -27 67 -27 115 -9
66 24 167 17 230 -15 44 -21 51 -22 88 -10 27 9 66 11 125 7 84 -6 88 -5 126
23 57 41 134 56 210 42 l60 -11 38 38 c48 48 119 82 190 91 52 6 54 7 30 17
-14 6 -50 14 -80 17 -51 5 -57 3 -97 -29z"/>
<path d="M1677 1160 c-40 -12 -55 -27 -62 -61 -4 -16 -11 -31 -16 -35 -15 -9
-273 26 -379 52 -52 12 -97 20 -99 18 -11 -11 32 -75 56 -85 53 -20 229 -59
324 -72 l94 -12 37 -70 c20 -38 43 -74 51 -79 11 -7 43 7 113 47 103 59 139
68 189 48 24 -10 36 -9 67 5 36 16 41 16 103 -1 37 -10 89 -34 120 -56 31 -21
60 -39 66 -39 5 0 29 31 53 69 l44 68 99 12 c133 17 223 37 316 73 72 28 80
33 99 74 12 24 19 46 16 49 -3 3 -47 -8 -98 -25 -120 -39 -241 -60 -349 -60
-85 0 -87 1 -104 29 -19 33 -72 61 -114 61 -48 0 -127 -28 -173 -61 -41 -30
-46 -31 -78 -19 -20 7 -51 9 -76 6 -34 -5 -51 -2 -87 18 -40 23 -149 57 -174
55 -5 0 -23 -5 -38 -9z"/>
<path d="M2873 1012 c-7 -4 -24 -35 -39 -67 -26 -60 -158 -390 -188 -475 l-17
-45 6 40 c8 51 68 234 130 393 27 67 46 124 44 127 -3 2 -36 -4 -74 -14 l-70
-18 -28 -84 c-52 -152 -115 -417 -117 -494 0 -5 -5 -2 -11 7 -16 28 38 325 97
537 7 24 7 24 -47 18 -30 -4 -66 -7 -81 -7 -21 0 -32 -10 -57 -56 -28 -48 -35
-78 -56 -231 -14 -97 -27 -179 -30 -181 -3 -3 -5 65 -5 151 l0 156 -42 34
c-57 45 -97 71 -104 65 -6 -7 -28 -156 -50 -345 -10 -84 -22 -153 -26 -153 -4
0 -8 39 -8 88 1 80 4 123 25 355 7 73 7 77 -12 77 -12 0 -34 -7 -49 -15 -16
-8 -45 -15 -65 -15 l-36 0 -6 -167 c-4 -91 -7 -204 -7 -250 0 -45 -4 -83 -8
-83 -9 0 -16 88 -28 363 -5 97 -11 147 -18 147 -6 0 -45 -19 -86 -43 l-75 -42
4 -198 c3 -143 1 -197 -8 -197 -6 0 -11 16 -12 38 0 20 -6 101 -13 180 -11
131 -14 144 -39 170 -14 15 -40 54 -57 87 -32 62 -47 72 -109 74 -31 1 -33 0
-26 -26 44 -173 100 -490 89 -502 -8 -9 -13 9 -79 264 -36 143 -72 265 -78
271 -12 12 -119 35 -126 28 -3 -3 11 -62 36 -148 3 -11 1 -16 -5 -12 -5 3 -25
44 -43 91 -26 65 -39 87 -56 91 -12 3 -26 4 -31 2 -8 -2 241 -620 276 -684 15
-28 39 -31 362 -45 204 -9 319 -9 500 1 130 6 250 15 268 18 l34 7 144 360
c79 198 144 361 144 363 0 5 -26 1 -37 -6z"/>
</g>
</svg>
